<?xml version="1.0" encoding="UTF-8"?>
<svg id="Layer_4" xmlns="http://www.w3.org/2000/svg" viewBox="0 0 608.63 565.76">
  <defs>
    <style>
      .cls-1 {
        fill: #9ab8cc;
      }

      .cls-2 {
        fill: #b4c946;
      }

      .cls-3 {
        fill: #e7f1fb;
      }

      .cls-4 {
        fill: #bcd7ed;
      }

      .cls-5 {
        fill: #7e8f27;
      }
    </style>
  </defs>
  <path class="cls-4" d="M608.58,275.35c-.38,42.79-5.74,87.44-24.74,126.19-5,10.17-10.92,19.62-16.58,29.38-37.71,64.79-99.5,106.33-171.54,124.04-55.5,13.62-114.37,14.29-170.42,2.33-20-4.25-39.63-10.08-58.58-17.5-64-25.08-112.42-77.29-142.33-138.25C5.34,362.8.37,316.49,0,273.7l608.58,1.66Z"/>
  <path class="cls-3" d="M588.75,273.74c0,6.5-5.54,15.38-19.04,25,0,0-.04,0-.04-.04-11.96,8.54-30.21,17.67-56.37,26.17-55.54,18.13-129.75,28.08-209,28.08s-153.46-9.96-209-28.08c-23.92-7.79-41.17-16.04-53.08-23.96h-.04l-.04-.04c-15.79-10.38-22.21-20.12-22.21-27.12,0-12.29,19.75-33.08,75.42-51.21,55.54-18.12,129.75-28.08,209-28.08s153.46,9.96,209,28.08c55.67,18.12,75.42,38.92,75.42,51.21Z"/>
  <path class="cls-4" d="M588.75,273.74c0,6.5-5.54,15.38-19.04,25,0,0-.95.64-.95.6-11.92-7.62-28.85-17.1-51.6-24.51-55.5-18.12-129.75-28.08-209-28.08s-153.46,9.96-209,28.08c-25.96,8.5-43.76,20.29-55.76,28.83l-1.24-2.74-.04-.04c-15.79-10.38-22.21-20.12-22.21-27.12,0-12.29,19.75-33.08,75.42-51.21,55.54-18.12,129.75-28.08,209-28.08s153.46,9.96,209,28.08c55.67,18.12,75.42,38.92,75.42,51.21Z"/>
  <g>
    <path class="cls-2" d="M570.92,249.61c-.25-.67-.54-1.33-.87-2-2.83-5.42-7.38-5.79-11.92-6.21-3.5-.37-6.96-.75-9.71-3.42-.67-.67-1.17-1.46-1.5-2.33-.87-2.12-1.08-4.62-1.96-6.62-1.67-3.71-4.5-5.38-8.08-7.08-6.92-3.37-13.71-7-19.25-12.29-2.17-2.04-3.83-5-4.79-8.21-1.79-5.63-1.58-12.21,1.58-16.67,4.38-6.12,13.83-4.88,14.67-13.96.58-5.87-3.38-11.42-8.92-13.42-4.75-1.71-9.92-2.17-14.71-3.75-5.17-1.71-10.5-5.38-10.08-11.29.37-5.21,4.21-10.33,1.58-15.54-9.33-18.42-38.37-10.54-42.25-33.83-1.58-9.46-.21-18.96-6.29-27.12-4.88-6.54-12.62-10.58-20.71-11.67-1.75-.25-3.42-.21-4.96,0l-.62-.96c-.33-.62-.71-1.17-1.08-1.62l-.13-.21c-4.75-5.88-12.54-4.46-17-11-4.87-7.25,12.37-20.29-3.79-21.92-10-1-19,2.71-26.5,8.71l-6.58-5.62c-10.96-9.25-20.75-1.75-32.08-7.33-5.58-2.75,1.79-12.21-7.08-13.96-12.25-2.42-23.67,11.25-26.5,20.92-1.88-11.13-13.17-17.46-23.54-19.29-10.79-1.88-29.79.12-29.21,14.42.08,1.96.21,4.04-.5,5.92-4.33,11.58-29.25-5.21-29.96,10.83-.29,6.75,2.17,14.08,6.38,19.75l2.37,3.17c-24.79-8.75-34.83,34.88-52.83,48.17-15.67,11.58-47.42-6.87-68.96,10.79-18.29,15.04,9.71,22.58,7.67,38.83-1.13,8.79-15.96,1.67-18.63,10.79-2.5,8.75.42,18.71,6.96,26.21l.13.21c-12.75,1.71-25.21,5.75-36.67,11.54-9.58,4.92-19.88,10.67-25.58,20.08-.71,1.17-1.33,2.33-1.83,3.58-2.12,4.75-3.08,9.96-3.04,15.17.04,3.37.46,6.71,1.29,10,.58,2.38,1.38,4.75,2.38,7,2.83,6.46,7.54,12.08,7.17,19.46-.33,7.08-3.5,14.62-2.42,21.92.08.54.21,1.08.33,1.58,2.08,8.17,10.42,12.42,18.08,14.88,6.54,2.08,25.63,5.96,25.63,5.96l.87.21s-1.46,3.58-1.96,5.5c-1.25,4.67-1.75,9.46-1.5,14.25,38.04,13,86.79,22.62,141.67,27.42,25.08,2.17,51.46,3.33,78.67,3.33,20.83,0,41.21-.67,60.87-1.96,57.75-3.83,109.58-13,150.42-25.83-.71-1.25-1.54-2.5-2.46-3.71l.67-.58c8.29-9.67,21.37-13.08,33.33-16,11.96-2.92,19.07-14.2,22.15-25.33.04-.04.18-.67.18-.71,2.54-9.04,2.83-18.5,2.79-27.79,0-7,1.29-14.63-1.37-21.33Z"/>
    <g>
      <g>
        <path class="cls-5" d="M301.35,178.01c-.69,0-1.38-.22-1.95-.69-16.23-13.01-18.81-18.9-21.69-27.43-2.64-7.83.01-19.24,6.59-28.4,5.67-7.9,13.23-12.42,20.73-12.42,1.73,0,3.12,1.4,3.12,3.12s-1.4,3.12-3.12,3.12c-5.47,0-11.17,3.58-15.66,9.82-5.29,7.36-7.7,16.93-5.74,22.76,2.66,7.9,4.74,12.58,19.67,24.55,1.35,1.08,1.56,3.05.48,4.39-.62.77-1.52,1.17-2.44,1.17Z"/>
        <path class="cls-5" d="M312.33,359.78c-.67,0-1.34-.21-1.92-.66-16.38-12.73-32.62-18.37-46.35-22.21-10.07-2.82-19.79-2.61-30.09-2.39-4.09.09-8.22.17-12.44.08-5.07-.12-12.5-.75-18.37-4.85-8.41-5.87-9.46-15.49-2.82-25.74,14.31-22.08,37.28-38.46,59.96-42.77.83-.16,1.67-.3,2.52-.44,4.17-.7,8.12-1.35,10.12-3.91,3.44-4.37-.36-10.74-4-13.66-2.6-2.08-6.15-3.48-9.91-4.96-5.49-2.16-11.18-4.4-14.82-9.18-3.73-4.9-5.06-10.24-3.97-15.86,2.63-13.51,18.58-24.26,25.31-28.25,14.95-8.87,31.88-12.81,47.95-15.76,1.7-.3,3.33.81,3.64,2.51.31,1.7-.81,3.33-2.51,3.64-15.5,2.84-31.79,6.62-45.89,14.99-4.69,2.78-20.15,12.73-22.37,24.07-.75,3.85.17,7.41,2.81,10.88,2.58,3.39,7.22,5.22,12.13,7.15,4.03,1.58,8.19,3.22,11.53,5.9,6.82,5.47,10.55,15.34,5,22.4-3.51,4.46-9.08,5.39-14.01,6.21-.81.13-1.61.27-2.39.42-21.06,4-42.47,19.33-55.88,40.02-4.86,7.5-4.47,13.29,1.15,17.22,4.49,3.13,10.67,3.63,14.94,3.73,4.13.09,8.17.01,12.16-.08,10.29-.22,20.94-.44,31.91,2.62,14.31,4,31.27,9.9,48.5,23.29,1.36,1.06,1.61,3.02.55,4.39-.62.79-1.54,1.21-2.47,1.21Z"/>
        <path class="cls-5" d="M365.81,366.81c-.53,0-1.07-.13-1.56-.42-1.5-.86-2.01-2.77-1.15-4.27,2.38-4.13,6.84-7.59,9.8-9.88l.51-.39c1.95-1.53,3.61-2.97,5.07-4.4.1-.1.2-.18.31-.26,8.66-8.63,6.14-13.57,3.47-16.53-8.65-9.63-21.63-14.03-33.18-17.07-11.61-3.06-22.45-6.02-37.63-10.48-1.66-.49-2.6-2.23-2.12-3.88.49-1.66,2.24-2.59,3.88-2.12,15.11,4.45,25.9,7.39,37.46,10.44,12.44,3.27,26.48,8.08,36.23,18.93,4.7,5.22,7.81,13.87-4.01,25.45-.11.1-.22.2-.33.28-1.55,1.49-3.29,2.99-5.3,4.57l-.53.41c-2.57,1.99-6.45,5-8.21,8.06-.58,1-1.63,1.56-2.71,1.56ZM380.71,349.7h.04-.04Z"/>
        <path class="cls-5" d="M231.42,367.24c-.91,0-1.8-.39-2.42-1.15-1.09-1.33-.9-3.3.44-4.4,5.56-4.56,12.71-8.95,21.24-13.07,9.53-4.59,20.77-8.77,30.84-11.45,1.92-.53,3.95,1.02,3.95,3.02,0,1.54-1.1,2.82-2.56,3.08-9.66,2.59-20.4,6.59-29.52,10.99-8.09,3.9-14.82,8.03-20,12.27-.58.48-1.28.71-1.98.71Z"/>
        <path class="cls-5" d="M338.19,305.9c-.94,0-1.87-.42-2.48-1.22-1.05-1.37-.79-3.33.58-4.38,4.63-3.55,9.7-6.54,14.6-9.43,5.87-3.46,11.41-6.73,16.3-10.89,7.32-6.22,10.32-17.64,6.97-26.56-3.97-10.58-18-15.55-29.78-18.7-8.98-2.4-20.67-5.11-30.7-5.05h-.03c-1.71,0-3.11-1.38-3.12-3.1-.02-1.73,1.37-3.14,3.1-3.15,10.86-.16,23.01,2.76,32.37,5.26,13.23,3.53,29.04,9.29,34.02,22.54,4.3,11.45.61,25.55-8.77,33.52-5.3,4.51-11.34,8.07-17.17,11.52-4.74,2.8-9.64,5.69-13.97,9.01-.57.44-1.24.64-1.9.64Z"/>
        <path class="cls-5" d="M339.97,232.55c-.64,0-1.28-.19-1.83-.59-1.4-1.01-1.71-2.97-.7-4.36,5.12-7.07,11.11-14.19,17.81-21.18,3.11-3.25,6.47-6.56,9.98-9.85.8-.75,1.69-1.49,2.59-2.24,2.2-1.83,4.48-3.73,5.31-5.86.84-2.15.78-4.79-.15-7.45-1.04-2.97-3.07-5.54-5.21-8.25-4.67-5.92-10.04-11.16-15.52-15.15-2.8-2.04-5.45-4.39-5.86-7.8-.28-2.32.57-4.67,2.52-7,1.34-1.59,3.11-2.85,4.82-4.06,2.36-1.68,4.59-3.26,4.94-5.13.48-2.5-2.11-4.83-5.82-7.85-1.5-1.22-2.93-2.38-4.05-3.64-1.99-2.23-5.69-6.38-4.48-11.78.86-3.85,4.1-6.16,6.83-7.74,4.76-2.77,6.33-6.86,6.81-9.81.8-4.94-.87-10.32-4.46-14.39-4.78-5.41-11.81-8.89-18.62-12.26l-2.88-1.43c-8.86-4.47-18.58-2.81-24.75,4.22-5.08,5.78-7.33,11.88-6.86,18.67.81,11.82,9.85,25.26,26.87,39.94,1.31,1.13,1.45,3.1.33,4.41-1.13,1.31-3.1,1.45-4.41.33-18.33-15.81-28.09-30.7-29.02-44.24-.58-8.42,2.25-16.23,8.41-23.23,8-9.09,20.96-11.36,32.26-5.67l2.84,1.41c7.35,3.64,14.95,7.4,20.54,13.73,4.82,5.46,7.04,12.76,5.94,19.52-.98,6.05-4.47,11.1-9.84,14.22-1.5.87-3.53,2.21-3.87,3.71-.43,1.89.85,3.79,3.05,6.25.79.89,2.03,1.89,3.33,2.95,3.89,3.17,9.23,7.51,8.01,13.88-.83,4.33-4.35,6.83-7.46,9.04-1.46,1.04-2.83,2.01-3.65,2.99-.78.92-1.17,1.71-1.1,2.23.14,1.18,2.55,2.93,3.33,3.51,6.02,4.39,11.66,9.88,16.75,16.33,2.37,3,4.82,6.1,6.2,10.05,1.43,4.06,1.45,8.25.08,11.79-1.42,3.64-4.45,6.16-7.13,8.4-.81.67-1.6,1.33-2.32,2-3.43,3.22-6.71,6.45-9.74,9.62-6.5,6.78-12.31,13.69-17.26,20.52-.61.84-1.57,1.29-2.53,1.29Z"/>
        <path class="cls-5" d="M360.67,291.69c-1.09,0-2.16-.58-2.73-1.6-.84-1.51-.3-3.41,1.2-4.25,16.85-9.41,51.97-24.7,72.95-33.83l7.96-3.47c1.59-.69,3.42.03,4.12,1.61.69,1.58-.03,3.42-1.61,4.12l-7.98,3.48c-19.51,8.49-55.82,24.3-72.4,33.56-.48.27-1.01.4-1.52.4Z"/>
        <path class="cls-5" d="M508.98,339.84c-.79,0-1.57-.29-2.18-.88-6.19-6.01-14.21-10.61-19.65-12.92-6.53-2.76-13.39-3.74-20.64-4.76-6.24-.88-12.69-1.8-18.95-3.96-3.6-1.24-13.16-4.53-13.53-13.46-.31-7.42,6.42-13.54,12.9-15.53,4.35-1.34,8.74-1.57,12.98-1.79,3.14-.16,6.1-.32,8.98-.9,7.11-1.42,13.8-4.14,18.85-7.67,11.49-8.02,11.69-24.59,8.37-36.34-4.69-16.59-15.77-27.1-31.19-29.57-8.64-1.39-18.45-.98-28.38,1.18-.77.17-1.9.43-3.3.76-30.02,7.04-41.79,7.65-44.97,2.33-1.29-2.18-1.55-4.55-.77-6.87,2.53-7.5,15.43-13.24,33.39-20.55,7.57-3.08,17.93-7.3,19.17-9.39,3.46-5.95-.7-11.9-6.96-19.66-2.64-3.27-5.14-6.37-6.39-9.41-2.82-6.84,4.07-10.51,8.63-12.94,2.69-1.43,6.04-3.22,6.38-4.79.15-.68-.31-1.75-1.29-3.02-2.17-2.79-5.76-5.55-9.55-8.46-5.68-4.37-11.56-8.89-14.4-14.76-1.82-3.77-2.19-8.1-2.53-12.28-.47-5.56-.91-10.82-4.65-14.07-14.05-12.13-30.64-10.15-44.36,5.3-1.14,1.29-3.12,1.41-4.41.26-1.29-1.15-1.41-3.12-.26-4.41,16.04-18.05,36.39-20.31,53.12-5.87,5.67,4.92,6.27,12.02,6.79,18.28.32,3.78.61,7.35,1.93,10.08,2.19,4.53,7.48,8.6,12.58,12.52,4.12,3.17,8.01,6.16,10.68,9.58,2.19,2.83,3.02,5.57,2.47,8.16-.94,4.41-5.52,6.85-9.55,9-5.06,2.7-6.31,3.78-5.79,5.04.91,2.21,3.13,4.96,5.48,7.87,5.65,7,13.39,16.6,7.49,26.73-2.19,3.74-9.49,6.85-22.21,12.02-11.16,4.54-28.01,11.4-29.82,16.76-.17.5-.2.98.22,1.68,1.32.93,8.27,1.79,38.17-5.22,1.44-.34,2.61-.61,3.4-.79,10.68-2.33,21.3-2.76,30.7-1.25,17.7,2.85,30.9,15.25,36.21,34.05,4.06,14.38,3.36,33.28-10.81,43.17-5.74,4.01-13.27,7.09-21.2,8.68-3.33.67-6.66.84-9.88,1.01-4.04.21-7.86.41-11.47,1.52-4.23,1.3-8.65,5.35-8.49,9.3.13,3.23,3.01,5.64,9.32,7.81,5.7,1.96,11.57,2.8,17.79,3.68,7.33,1.04,14.91,2.11,22.2,5.2,7.73,3.27,15.79,8.58,21.57,14.19,1.24,1.2,1.27,3.18.07,4.42-.61.63-1.43.95-2.24.95Z"/>
        <path class="cls-5" d="M165.07,333.67c-1.18,0-2.3-.67-2.83-1.8-8.64-18.46-13.94-20.94-25.82-22.89-2.5-.41-5.96-.67-9.97-.96-13.89-1.01-32.92-2.4-40.71-12.56-3.14-4.09-4.16-9.15-3.03-15.04,3.07-16.05,20.48-26.26,33.19-33.72l.96-.57c14.77-8.68,30.7-15.87,47.35-21.39,2.5-.83,5.42-1.56,8.51-2.34,10.69-2.69,23.99-6.03,26.43-15.27,1.08-4.11-1.18-8.42-2.63-10.62-2.4-3.65-5.47-6.89-8.72-10.32-3.86-4.08-7.86-8.29-10.71-13.34-5.97-10.57-6.52-23.98-1.48-35.88,4.81-11.35,13.97-19.53,25.14-22.43,7.49-1.95,16-2.46,26.77-1.58,2.66.21,5.34.72,7.93,1.2,5.04.95,9.8,1.83,14.19.74.9-.23,1.54-.52,1.9-.87.97-.94,1.09-1.61,1.09-2.03,0-2.17-3.09-5.21-5.36-7.43-1.12-1.1-2.15-2.12-2.86-3-3.04-3.77-4.84-9.34-4.94-15.29-.24-13.95,6.11-29.82,20.61-31.69,15.86-2.05,34.07,11.2,40.5,24.36.76,1.55.12,3.42-1.44,4.18-1.55.76-3.42.12-4.18-1.44-5.49-11.23-21.21-22.55-34.09-20.9-11.42,1.47-15.32,15.99-15.16,25.38.08,4.58,1.38,8.76,3.56,11.47.59.73,1.44,1.56,2.37,2.47,3.22,3.17,7.24,7.11,7.23,11.91,0,2.39-1.01,4.58-2.98,6.49-1.17,1.14-2.73,1.95-4.74,2.45-5.71,1.42-11.38.37-16.86-.66-2.55-.48-4.95-.93-7.28-1.12-10.06-.82-17.91-.37-24.7,1.4-9.27,2.41-16.91,9.28-20.96,18.83-4.29,10.12-3.85,21.47,1.17,30.36,2.48,4.38,6.04,8.14,9.81,12.11,3.3,3.47,6.71,7.07,9.41,11.19,3.48,5.31,4.71,10.86,3.44,15.65-3.38,12.8-18.66,16.65-30.95,19.74-2.98.75-5.79,1.45-8.07,2.21-16.23,5.38-31.76,12.4-46.15,20.85l-.97.57c-11.68,6.85-27.68,16.24-30.22,29.5-.79,4.12-.18,7.41,1.85,10.06,6.09,7.93,24.21,9.25,36.21,10.13,4.16.3,7.75.57,10.53,1.02,14.48,2.38,21.26,6.73,30.47,26.41.73,1.56.06,3.42-1.51,4.15-.43.2-.88.3-1.32.3Z"/>
        <path class="cls-5" d="M87.12,326.4c-.46,0-.93-.1-1.37-.32-1.55-.76-2.19-2.63-1.43-4.18,3.3-6.73,9.29-15.83,13.94-21.18,1.13-1.3,3.11-1.44,4.41-.31s1.44,3.11.31,4.41c-4.34,4.99-9.95,13.52-13.05,19.82-.54,1.11-1.65,1.75-2.81,1.75Z"/>
        <path class="cls-5" d="M405.61,76.73c-.2,0-.39-.02-.59-.05-1.7-.32-2.81-1.96-2.49-3.65,1.97-10.34,7.11-17.68,14.49-20.68,1.6-.66,3.42.12,4.07,1.72.65,1.6-.12,3.42-1.72,4.07-5.27,2.14-9.17,8-10.71,16.06-.28,1.5-1.6,2.54-3.07,2.54Z"/>
        <path class="cls-5" d="M121.22,204.5c-.81,0-1.55-.03-2.21-.11-7.2-.79-12.61-3.44-17.55-8.61-1.19-1.25-1.15-3.22.1-4.42,1.25-1.19,3.22-1.15,4.42.1,3.96,4.14,7.93,6.08,13.71,6.71,3.83.41,12.94-1.07,21.76-2.5,4.76-.78,9.66-1.57,14.16-2.16,1.69-.24,3.28.98,3.5,2.7.22,1.71-.98,3.28-2.7,3.5-4.44.58-9.26,1.36-13.96,2.13-8.66,1.41-16.3,2.65-21.24,2.65Z"/>
        <path class="cls-5" d="M244.61,71.48c-.73,0-1.46-.25-2.05-.77-5.33-4.67-10.44-8.37-13.66-9.92-1.56-.75-2.21-2.61-1.47-4.17.74-1.56,2.61-2.22,4.17-1.47,3.76,1.8,9.25,5.76,15.07,10.85,1.3,1.14,1.43,3.11.29,4.41-.62.71-1.48,1.07-2.35,1.07Z"/>
        <path class="cls-5" d="M349.71,74.01c-.65,0-1.3-.2-1.86-.61-1.38-1.02-1.67-2.98-.66-4.37.38-.52.67-2.57.82-3.67.14-1.03.28-1.99.48-2.75,1.56-6.04,3.52-11.37,6-16.28,3.41-6.74,7.93-12.95,13.06-17.94,1.23-1.21,3.21-1.18,4.42.06,1.2,1.24,1.18,3.21-.06,4.42-4.64,4.52-8.74,10.16-11.84,16.29-2.28,4.5-4.09,9.42-5.53,15.02-.14.56-.23,1.28-.34,2.04-.31,2.23-.65,4.75-2,6.56-.61.82-1.55,1.25-2.49,1.25Z"/>
        <path class="cls-5" d="M311.97,62.69c-1.14,0-2.24-.62-2.79-1.71-.25-.49-.81-1.2-1.52-2.16-3.98-5.38-13.31-17.97-10.07-34.5.33-1.7,1.99-2.81,3.67-2.47,1.69.33,2.8,1.97,2.47,3.67-2.71,13.83,5.17,24.47,8.96,29.58.96,1.3,1.66,2.24,2.07,3.05.78,1.54.17,3.42-1.37,4.2-.45.23-.94.34-1.41.34Z"/>
        <path class="cls-5" d="M177.26,279.88c-1.52,0-2.85-1.11-3.08-2.65-.26-1.71.91-3.3,2.61-3.56,17.58-2.69,40.41-3.7,58.17-2.58,1.72.11,3.03,1.59,2.92,3.32s-1.56,3-3.32,2.92c-17.08-1.08-39.91-.07-56.83,2.52-.16.02-.32.04-.48.04Z"/>
        <path class="cls-5" d="M270.4,187.76c-.67,0-1.33-.21-1.9-.65-13.11-10.07-30.37-19.14-46.16-24.27-1.64-.53-2.54-2.29-2.01-3.94.53-1.64,2.29-2.54,3.94-2.01,16.43,5.33,34.39,14.77,48.04,25.25,1.37,1.05,1.63,3.01.57,4.38-.61.8-1.54,1.22-2.48,1.22Z"/>
        <path class="cls-5" d="M363.54,166.38c-1.52,0-2.86-1.11-3.09-2.66-.25-1.71.92-3.3,2.63-3.55l31.68-4.72c1.73-.26,3.3.92,3.55,2.63.25,1.71-.92,3.3-2.63,3.55l-31.68,4.72c-.16.02-.31.03-.47.03Z"/>
      </g>
      <path class="cls-5" d="M469.23,191.62c-1.73,0-3.12-1.4-3.12-3.12s1.4-3.12,3.12-3.12c16.81,0,27.25-2.42,38.31-4.98l.73-.17c1.69-.38,3.36.66,3.75,2.34.39,1.68-.66,3.36-2.34,3.75l-.72.17c-10.92,2.53-22.2,5.14-39.72,5.14Z"/>
      <path class="cls-5" d="M523.59,288.11c-11.76,0-22.37-2.15-31.46-4l-1.82-.37c-1.69-.34-2.79-1.99-2.45-3.68.34-1.69,1.99-2.79,3.68-2.45l1.84.37c12.78,2.59,28.68,5.81,46.11,2.35,1.68-.35,3.34.76,3.67,2.45.34,1.69-.76,3.34-2.45,3.67-5.92,1.18-11.64,1.65-17.11,1.65Z"/>
    </g>
  </g>
  <path class="cls-3" d="M512.83,201.45c.96,3.21,2.62,6.17,4.79,8.21,5.54,5.29,12.33,8.92,19.25,12.29,3.58,1.71,6.42,3.38,8.08,7.08.87,2,1.08,4.5,1.96,6.62,4.08,1.92,7.79,3.83,11.21,5.75,4.54.42,9.08.79,11.92,6.21.33.67.62,1.33.87,2,12.63,9.25,17.83,17.79,17.83,24.13s-5.43,15.22-18.93,24.84c-1.02.72-2.05,1.42-3.09,2.11-1.04.69-2.08,1.36-3.14,2.02-1.12.7-2.24,1.37-3.38,2.04-1.2.7-2.4,1.38-3.62,2.05-1.28.7-2.57,1.39-3.87,2.06-1.36.7-2.74,1.39-4.12,2.06-1.45.7-2.91,1.39-4.37,2.06-1.54.7-3.08,1.39-4.63,2.06-1.63.7-3.26,1.38-4.9,2.05-1.72.7-3.44,1.38-5.17,2.04-1.81.69-3.62,1.37-5.44,2.03-1.9.69-3.81,1.36-5.72,2.01-1.69.58-3.38,1.14-5.08,1.69-4.5,1.46-9.17,2.87-13.92,4.25-34.38,9.88-74.87,16.88-118.71,20.58-24.58,2.17-50.21,3.25-76.37,3.25-17.71,0-35.21-.5-52.25-1.5-59.25-3.38-113.63-12.5-156.75-26.58-23.5-7.67-40.54-15.75-52.42-23.54-.3-.19-.46-.29-.75-.46-15.79-10.38-22.21-20.12-22.21-27.13,0-5.92,4.54-13.79,15.5-22.38-.83-3.29-1.25-6.63-1.29-10-.04-5.21.92-10.42,3.04-15.17C13.46,240.28,0,256.49,0,273.7c0,26.5,31.96,50.63,84,68.42,38.04,13,86.79,22.62,141.67,27.42,25.08,2.17,51.46,3.33,78.67,3.33,20.83,0,41.21-.67,60.87-1.96,57.75-3.83,109.58-13,150.42-25.83,57.33-18.04,93-43.33,93-71.37s-36.83-54.12-95.79-72.25Z"/>
  <path class="cls-1" d="M387.94,526.05c-1.42,0-2.7-.97-3.04-2.41-.39-1.68.65-3.36,2.33-3.76,46.21-10.87,110.41-41.22,153.86-124.05.8-1.53,2.69-2.12,4.22-1.31,1.53.8,2.12,2.69,1.31,4.22-44.55,84.92-110.49,116.06-157.96,127.23-.24.06-.48.08-.72.08Z"/>
</svg>