<?xml version="1.0" encoding="UTF-8"?>
<svg id="Layer_3" xmlns="http://www.w3.org/2000/svg" viewBox="0 0 610.32 562.7">
  <defs>
    <style>
      .cls-1 {
        fill: #9ab8cc;
      }

      .cls-2 {
        fill: #e7f1fb;
      }

      .cls-3 {
        fill: #bcd7ed;
      }

      .cls-4 {
        fill: #f05b3d;
      }

      .cls-5 {
        fill: #bf260d;
      }
    </style>
  </defs>
  <g>
    <path class="cls-3" d="M610.28,272.3c-.38,42.79-5.74,87.44-24.74,126.19-5,10.17-10.92,19.62-16.58,29.38-37.71,64.79-99.5,106.33-171.54,124.04-55.5,13.63-114.37,14.29-170.42,2.33-20-4.25-39.63-10.08-58.58-17.5-64-25.08-112.42-77.29-142.33-138.25C7.03,359.74,2.07,313.44,1.7,270.64l608.58,1.66Z"/>
    <path class="cls-1" d="M389.63,523c-1.42,0-2.7-.97-3.04-2.41-.39-1.68.65-3.36,2.33-3.76,46.21-10.87,110.41-41.21,153.86-124.05.8-1.53,2.69-2.12,4.22-1.31,1.53.8,2.12,2.69,1.31,4.22-44.55,84.93-110.49,116.06-157.96,127.23-.24.06-.48.08-.72.08Z"/>
    <path class="cls-2" d="M590.45,270.69c0,6.5-5.54,15.38-19.04,25,0,0-.04,0-.04-.04-11.96,8.54-30.21,17.67-56.37,26.17-55.54,18.13-129.75,28.08-209,28.08s-153.46-9.96-209-28.08c-23.92-7.79-41.17-16.04-53.08-23.96h-.04l-.04-.04c-15.79-10.38-22.21-20.12-22.21-27.13,0-12.29,19.75-33.08,75.42-51.21,55.54-18.12,129.75-28.08,209-28.08s153.46,9.96,209,28.08c55.67,18.12,75.42,38.92,75.42,51.21Z"/>
    <path class="cls-3" d="M590.45,270.69c0,6.5-10.23,27.41-23.73,37.04,0,0-23.21-16.3-23.21-16.35-11.92-7.62-1.89-12.19-24.64-19.61-55.5-18.12-129.75-28.08-209-28.08s-153.46,9.96-209,28.08c-25.96,8.5-24.48,21.23-36.48,29.77l-8.24,3.52-8.45-1.87c-15.79-10.38-26.08-25.51-26.08-32.51,0-12.29,19.75-33.08,75.42-51.21,55.54-18.12,129.75-28.08,209-28.08s153.46,9.96,209,28.08c55.67,18.12,75.42,38.92,75.42,51.21Z"/>
    <path class="cls-2" d="M559.82,238.36c4.91,2.74,9.15,5.49,12.77,8.15,0,.02.02.03.02.05,12.63,9.25,17.83,17.79,17.83,24.13s-5.23,15.09-18.73,24.71c0,0-.21.15-.35.25-.08.04-.13.08-.21.13-11.96,8.5-30.17,17.58-56.17,26.04-4.5,1.46-9.17,2.87-13.92,4.25-34.38,9.88-74.87,16.88-118.71,20.58-24.58,2.17-50.21,3.25-76.37,3.25-17.71,0-35.21-.5-52.25-1.5-59.25-3.38-113.63-12.5-156.75-26.58-23.5-7.67-40.54-15.75-52.42-23.54-.25-.13-.46-.29-.67-.42h-.04l-.04-.04c-15.79-10.38-22.21-20.13-22.21-27.13,0-5.92,4.54-13.79,15.5-22.38-.83-3.29-1.25-6.63-1.29-10-.04-5.21.92-10.42,3.04-15.17C15.15,237.23,1.7,253.44,1.7,270.64c0,26.5,31.96,50.62,84,68.42,38.04,13,86.79,22.62,141.67,27.42,25.08,2.17,51.46,3.33,78.67,3.33,20.83,0,41.21-.67,60.87-1.96,57.75-3.83,109.58-13,150.42-25.83,57.33-18.04,93-43.33,93-71.37s-36.83-54.12-95.79-72.25c.96,3.21,2.62,6.17,4.79,8.21,5.54,5.29,12.33,8.92,19.25,12.29,3.58,1.71,6.42,3.38,8.08,7.08.87,2,1.08,4.5,1.96,6.62,4.08,1.92,7.79,3.83,11.21,5.75h0Z"/>
    <g>
      <path class="cls-4" d="M566.45,256.69c-.62-.75-3.04-3.08-4.21-4.12l-.63-.63c2.83-3.42,4.79-7.5,6.08-11.71,2.08-6.75,2.46-13.79,2.17-19-.12-1.75-.29-3.29-.5-4.5-1.92-11.33-8.12-18.42-13.96-24.79-9.38-10.29-19.96-16.71-31.63-23.71l-1.38-.79c2.67-7.46,4.58-15.12,5.87-22.92,1.38-8.33,2.04-16.92.83-25.29-3.71-25.75-24.79-46.5-48.87-56.29-23.58-9.62-49.21-10.67-74.71-9.62h-1.62c.87-10,1.75-20.21-.67-29.96-2.46-9.75-8.92-19.08-18.46-22.21-6.71-2.17-14.12-1.04-20.75,1.42-19.58,7.29-34,10.67-58.67,24.5l-.33-.21c-22-15.08-44.38-21.92-71.04-20.79-26.79,1.12-45.38,11.88-66.13,28.83-13.12,10.71-24.04,24.04-37.87,33.75-20.83,14.62-48.87,21.83-61.08,44.17-10.25,18.71-4.12,44.67,13.33,56.87,0,0-4.67,1.5-6.88,2.46-20.21,8.79-35.92,27.42-41.17,48.87-.46,1.96-.83,3.87-1.08,5.75-1.29,8.58-.5,16.25,1.25,23.75,2.12,8.92,5.67,17.63,8.92,27.37,2.17,6.46,2.06,13.61.97,20.52.08.08.28.23.36.27,11.87,7.79,28.87,15.46,52.37,23.12,18.41,6.02,38.86,11.09,60.85,15.23.42.08.84.16,1.26.24,3.59.67,7.22,1.3,10.89,1.92.6.1,1.18.21,1.77.31,4.16.69,8.36,1.35,12.61,1.97h.02c22.02,3.22,45.29,5.53,69.35,6.92,9.61.56,19.37.96,29.25,1.19l.25.02c.26,0,.52,0,.78,0,.83.02,1.64.06,2.47.07v-.04c6.47.15,12.96.25,19.5.25,14.83,0,29.54-.33,43.92-1.04,11-.54,21.83-1.29,32.46-2.21,43.83-3.71,84.33-10.71,118.71-20.58,4.75-1.37,9.42-2.79,13.92-4.25,21.5-7,37.71-14.42,49.42-21.58,3.67-4.38,6.54-9.21,8.08-14.71,2.75-9.83.42-20.96-6.04-28.83Z"/>
      <g>
        <g>
          <path class="cls-5" d="M188.42,349.86c-.54,0-1.08-.14-1.58-.43-6.27-3.69-15.8-13.88-20.27-19.61-12.99-16.77-11.02-38.67-9.11-59.85.25-2.78.5-5.55.71-8.27.21-2.73.41-5.97.28-9.26-.14-7.48-1.45-13.07-4.12-17.68-3.07-5.3-8.14-9.39-13.05-13.34-9.59-7.73-17.82-14.57-26.07-21.43-7.85-6.52-15.73-13.07-24.85-20.45-.75-.59-3.44-2.59-5.85-4.3-1.41-1-1.73-2.95-.73-4.36,1-1.41,2.96-1.73,4.36-.73,2.51,1.79,5.32,3.87,6.12,4.51,9.17,7.41,17.07,13.98,24.94,20.52,8.23,6.84,16.43,13.66,26,21.37,5.1,4.11,10.88,8.77,14.53,15.08,3.18,5.49,4.81,12.23,4.96,20.59.14,3.61-.09,7.22-.3,9.97-.21,2.75-.46,5.54-.72,8.35-1.8,19.98-3.66,40.64,7.82,55.45,4.33,5.55,13.18,14.92,18.5,18.06,1.49.87,1.98,2.79,1.11,4.28-.58.99-1.63,1.54-2.7,1.54Z"/>
          <path class="cls-5" d="M161.54,255.54c-.52,0-1.06-.13-1.54-.41-1.5-.85-2.02-2.76-1.17-4.26,12.71-22.33,16.88-36.88,15.94-55.59-.54-10.81-2.51-21.74-4.42-32.32-1.51-8.39-3.08-17.06-3.95-25.74-2.48-24.68,1.82-44.31,12.78-58.34,4.37-5.59,10.14-10.71,18.15-16.11,28.74-19.36,54.92-22.77,85.22-26.72,7.07-.92,14.42-1.88,22.17-3.08,1.72-.27,3.3.9,3.57,2.61.26,1.7-.91,3.3-2.61,3.57-7.8,1.21-15.2,2.17-22.32,3.1-30.73,4-55.01,7.16-82.53,25.7-7.45,5.02-12.76,9.71-16.72,14.77-9.94,12.72-13.8,30.84-11.49,53.87.85,8.43,2.39,16.98,3.88,25.26,1.94,10.77,3.95,21.91,4.51,33.12,1,20.05-3.38,35.49-16.75,59-.58,1.01-1.63,1.58-2.72,1.58Z"/>
          <path class="cls-5" d="M516.84,277.32c-7.26,0-14.27-1.63-20.35-4.94-9.47-5.15-16.15-13.65-22.6-21.87l-.99-1.26c-8.88-11.29-19.53-23.89-33.54-30.55-9.93-4.72-21.19-6.33-32.08-7.89l-68.02-9.72c-5.88-.84-11.88-1.52-17.92-2.21-15.96-1.82-32.47-3.69-47.72-8.61-41.6-13.4-74.23-56.62-79.34-105.11-.57-5.42-.84-11.05-.81-16.71,0-1.73,1.3-3.21,3.14-3.11,1.73,0,3.12,1.42,3.11,3.14-.03,5.44.23,10.83.78,16.03,4.86,46.11,35.71,87.15,75.04,99.82,14.65,4.72,30.85,6.56,46.51,8.35,6.1.69,12.16,1.39,18.09,2.23l68.02,9.72c11.35,1.62,23.09,3.3,33.88,8.43,15.23,7.24,26.45,20.49,35.77,32.33l1,1.27c6.06,7.72,12.32,15.7,20.66,20.23,12.16,6.61,28.78,5.33,42.37-3.24,5.49-3.46,9.08-6.23,14.59-10.79,1.34-1.1,3.3-.91,4.4.42,1.1,1.33.91,3.3-.42,4.4-5.73,4.72-9.47,7.61-15.24,11.25-8.8,5.55-18.77,8.38-28.33,8.38Z"/>
          <path class="cls-5" d="M430.28,214.01c-1.17,0-2.28-.66-2.82-1.78-.74-1.56-.08-3.42,1.47-4.17,18.66-8.91,29.01-33.05,22.59-52.72-4.19-12.82-13.75-22.75-23.88-33.26-10.73-11.13-21.82-22.65-25.87-37.93-2.2-8.3-2.13-16.7-1.33-26.75.13-1.72,1.65-3.01,3.36-2.87,1.72.13,3.01,1.64,2.87,3.36-.74,9.42-.83,17.21,1.15,24.66,3.64,13.71,13.69,24.15,24.33,35.2,10.17,10.56,20.69,21.47,25.32,35.66,7.47,22.88-4.12,49.93-25.83,60.3-.44.21-.89.31-1.34.31Z"/>
          <path class="cls-5" d="M464.89,238.09c-.94,0-1.86-.42-2.48-1.22-1.05-1.37-.8-3.33.57-4.38l1.56-1.2c16.72-12.89,32.52-25.06,43.93-42.47,3.54-5.39,6.64-11.33,9.21-17.66.65-1.6,2.47-2.37,4.07-1.72,1.6.65,2.37,2.48,1.72,4.07-2.73,6.7-6.02,13-9.78,18.73-11.99,18.29-28.19,30.78-45.34,44l-1.56,1.2c-.57.44-1.24.65-1.91.65Z"/>
          <path class="cls-5" d="M339.21,200.94c-.42,0-.84-.08-1.25-.26-1.58-.69-2.3-2.54-1.61-4.12,5.97-13.63,8.35-28.65,6.86-43.45-.5-4.97-1.45-10.12-2.37-15.09-2.19-11.87-4.46-24.13-1.18-36.17,2.54-9.34,8.11-17.25,13.49-24.9l2.46-3.51c5.47-7.91,11.07-17.33,11.08-27.17,0-2.87-.48-4.45-2.09-6.77-1.73-2.49-4.95-4.31-8.85-4.97-12.15-2.07-24.95.21-38.5,2.64-4.56.81-9.22,1.65-14.04,2.36-1.7.25-3.3-.93-3.55-2.64-.25-1.71.93-3.3,2.64-3.55,4.75-.7,9.36-1.52,13.85-2.33,14.11-2.52,27.42-4.91,40.65-2.65,5.63.96,10.22,3.65,12.94,7.57,2.34,3.38,3.2,6.18,3.2,10.34-.01,11.56-6.17,22.02-12.19,30.72l-2.49,3.55c-5.07,7.21-10.32,14.66-12.57,22.94-2.9,10.66-.86,21.7,1.3,33.39.94,5.1,1.91,10.37,2.44,15.6,1.59,15.87-.95,31.98-7.35,46.59-.51,1.17-1.66,1.87-2.86,1.87Z"/>
          <path class="cls-5" d="M218.7,146.27c-.6,0-1.2-.17-1.73-.52-1.44-.96-1.82-2.9-.87-4.33,6.94-10.41,18.75-15.38,28.28-18.55,15.23-5.07,31.04-7.75,46.33-10.34,16.78-2.84,34.13-5.79,50.38-11.9,1.61-.61,3.42.21,4.02,1.83.61,1.62-.21,3.42-1.83,4.02-16.82,6.32-34.46,9.31-51.53,12.21-15.06,2.55-30.62,5.19-45.4,10.11-8.57,2.85-19.17,7.26-25.05,16.09-.6.9-1.59,1.39-2.6,1.39Z"/>
          <path class="cls-5" d="M289.85,118.79c-.38,0-.78-.07-1.15-.22l-2.71-1.06c-11.45-4.48-25.71-10.05-31.35-21.9-1.65-3.46-1.77-7.01-.36-10.26,1.62-3.71,5.14-6.66,9.67-8.09,9.41-2.97,19.58-4.53,29.17-5.78,11.86-1.54,23.94-2.1,35.87-1.66,9.96.37,20.71,2.43,24.91,14.87.55,1.63-.32,3.41-1.96,3.96-1.64.55-3.41-.32-3.96-1.96-2.82-8.35-9.45-10.26-19.22-10.62-11.58-.44-23.31.11-34.83,1.61-9.31,1.21-19.15,2.72-28.1,5.54-2.76.87-4.94,2.6-5.82,4.63-.68,1.56-.59,3.27.27,5.08,4.58,9.62,17.55,14.69,27.98,18.77l2.74,1.08c1.6.64,2.39,2.45,1.75,4.06-.49,1.22-1.66,1.97-2.91,1.97Z"/>
        </g>
        <path class="cls-5" d="M233.37,356.46c-.87,0-1.74-.36-2.35-1.07-1.14-1.3-1.01-3.27.29-4.41,3.2-2.8,8.42-7.23,13.72-11.73,5.74-4.87,11.58-9.83,15.02-12.86,25.14-22.02,54.76-45.12,87.94-40.71,18.82,2.49,34.55,13.41,49.76,23.97,7.63,5.3,15.53,10.78,23.66,15.07,9.11,4.81,26.78,11.14,35.91,13.38,1.67.41,2.7,2.11,2.29,3.78-.41,1.67-2.09,2.69-3.78,2.29-9.67-2.38-27.69-8.84-37.33-13.93-8.47-4.46-16.52-10.05-24.31-15.46-15.27-10.6-29.7-20.62-47.02-22.91-30.6-4.1-58.88,18.1-82.99,39.21-3.46,3.04-9.33,8.03-15.1,12.93-5.27,4.48-10.46,8.88-13.65,11.67-.59.52-1.33.77-2.06.77Z"/>
      </g>
    </g>
  </g>
  <path class="cls-2" d="M590.45,270.64v.04c0,6.5-5.43,15.23-18.93,24.86,0,0-.11.07-.15.1-11.96,8.54-30.21,17.67-56.38,26.17-55.54,18.12-129.75,28.08-209,28.08s-153.46-9.96-209-28.08c-23.92-7.79-41-15.98-52.92-23.85-.14-.09-.25-.15-.25-.15-15.79-10.38-22.21-20.13-22.21-27.13v-.04H1.7c0,54.79,136.25,99.17,304.33,99.17s304.29-44.38,304.29-99.17h-19.88Z"/>
</svg>