<?xml version="1.0" encoding="UTF-8"?>
<svg id="Layer_2" xmlns="http://www.w3.org/2000/svg" viewBox="0 0 904.71 1505.23">
  <defs>
    <style>
      .cls-1 {
        fill: #996a26;
      }

      .cls-2 {
        fill: #9ab8cc;
      }

      .cls-3 {
        fill: #602e2d;
      }

      .cls-4 {
        fill: #e7f1fb;
      }

      .cls-5 {
        fill: #bcd7ed;
      }

      .cls-6 {
        fill: #3d1f0b;
      }

      .cls-7 {
        fill: #b88738;
      }

      .cls-8 {
        fill: #d9e8f6;
      }
    </style>
  </defs>
  <g>
    <path class="cls-8" d="M432.66,156.01c4.35,172.4-1.43,240.53-18.4,305.26-24.86,94.81-70.36,182.87-99.21,276.43-30.46,98.79-54.33,199.5-71.42,301.29-14.63,87.14-23.17,176.31-12.94,264.13,4.22,36.2,31.12,66.21,67.34,75.39,188.39,47.7,365.77,45.26,533.88.55,35.54-9.45,61.57-39.31,65.77-74.93,10.41-88.15,1.86-177.67-12.83-265.13-17.09-101.79-40.96-202.5-71.42-301.29-28.85-93.56-74.35-181.63-99.21-276.43-16.97-64.73-22.75-132.86-18.4-305.26h-263.18Z"/>
    <path class="cls-5" d="M609.19,212.94c-28.86,0-57.43-.3-85.54-.6-31.98-.34-65.05-.67-98.11-.59h-.02c-3.44,0-6.24-2.79-6.25-6.23-.01-3.45,2.78-6.26,6.23-6.27,33.14-.09,66.25.26,98.27.59,58.24.61,118.47,1.24,178.97-.82,3.44-.08,6.34,2.58,6.46,6.03.12,3.45-2.58,6.34-6.03,6.46-31.51,1.08-62.92,1.43-93.99,1.43Z"/>
    <g>
      <path class="cls-6" d="M425.1,570.92s-.04.04-.04.08c-8.21,21.88-17.29,44.8-25.83,66.04-16.38,40.67-31.83,79.13-44.25,119-29.88,95.83-53.5,194.47-70.21,293.19-17,100.09-21,179.66-12.67,250.48,2.25,19.23,16.88,35.41,36.42,40.31,87.96,22.04,175.29,33.08,261.29,33.08s169.04-10.8,251.12-32.4c18.88-4.98,33.08-21.08,35.38-40.07,8.46-71.02,4.46-150.91-12.58-251.4-16.71-98.72-40.33-197.36-70.21-293.19-12.42-39.87-27.88-78.33-44.25-119-8.54-21.28-17.48-43.73-25.69-65.65l-278.47-.47Z"/>
      <path class="cls-3" d="M703.85,572.44c0,9.3-62.26,16.83-138.46,16.83s-140.34-8.82-140.34-18.12,64.14-15.55,140.34-15.55,138.46,7.54,138.46,16.83Z"/>
    </g>
    <g>
      <path class="cls-7" d="M780.43,16.29c-.21-.29-.46-.63-.67-.79,0-.04-.04-.08-.04-.08-.17-.17-.33-.33-.54-.46-.71-.54-1.75-1.04-3.04-1.54-.54-.17-1.17-.38-1.88-.58-5.37-1.63-14.25-3.08-26.12-4.54-61.19-3.5-122.54-6.58-183.78-6.96h0s0,0-.04,0c-.02,0-.05,0-.07,0s-.05,0-.07,0h-.04c-61.23.38-122.59,3.46-183.78,6.96-11.87,1.46-20.75,2.92-26.12,4.54-.71.21-1.33.42-1.88.58-1.29.5-2.33,1-3.04,1.54-.21.13-.37.29-.54.46,0,0-.04.04-.04.08-.21.17-.46.5-.67.79-3.71,4.25-5.5,10-4.46,15.96,1.67,9.21,3.54,19.29,4.79,25.58,1.08,5.25,2.5,10.96,6.96,14,3.29,2.25,7.54,2.5,11.33,3.75,27.46,9.12,29,52.12,33.79,74.96.83,3.96,1.87,8.38,3.96,15.46,0,0,8.13.25,10.25.25,34.92,0,69.83-.04,104.75-.04h89.61c34.92,0,69.83.04,104.75.04,2.12,0,10.25-.25,10.25-.25,2.08-7.08,3.12-11.5,3.96-15.46,4.79-22.83,6.33-65.83,33.79-74.96,3.79-1.25,8.04-1.5,11.33-3.75,4.46-3.04,5.87-8.75,6.96-14,1.25-6.29,3.12-16.37,4.79-25.58,1.04-5.96-.75-11.71-4.46-15.96Z"/>
      <path class="cls-1" d="M780.14,15.96c-.08-.17-.21-.29-.38-.46-.17-.17-.37-.33-.58-.54-.71-.5-1.71-1-3.04-1.54-.54-.17-1.17-.38-1.88-.58-5.46-1.75-14.5-3.42-26.42-4.87-38-4.79-105.54-7.96-182.21-7.96h-2.78c-76.67,0-144.21,3.17-182.21,7.96-11.92,1.46-20.96,3.12-26.42,4.87-.71.21-1.33.42-1.88.58-1.33.54-2.33,1.04-3.04,1.54-.21.21-.42.38-.58.54-.17.17-.29.29-.38.46-.21.29-.29.58-.29.87,0,9.29,96.58,16.83,214.79,16.83h2.78c118.21,0,214.79-7.54,214.79-16.83,0-.29-.08-.58-.29-.87Z"/>
    </g>
  </g>
  <g>
    <path class="cls-5" d="M611.04,1213.18c-.38,42.79-5.79,89.09-24.79,127.84-5,10.17-10.92,19.62-16.58,29.38-37.71,64.79-99.5,106.33-171.54,124.04-55.5,13.63-114.37,14.29-170.42,2.33-20-4.25-39.63-10.08-58.58-17.5-64-25.08-112.42-77.29-142.33-138.25-19.04-38.75-24-84.27-24.37-127.06l608.62-.78Z"/>
    <ellipse class="cls-4" cx="306.73" cy="1213.18" rx="304.31" ry="99.16"/>
    <path class="cls-5" d="M591.15,1213.2c0,6.5-5.56,15.36-19.06,24.99-11.92-7.67-29.73-16.49-52.52-23.9-55.5-18.12-129.75-28.08-209-28.08s-153.46,9.96-209,28.08c-26,8.5-45,17.54-57,26.08-15.83-10.42-22.25-20.17-22.25-27.17,0-12.29,19.75-33.08,75.42-51.21,55.54-18.12,129.75-28.08,209-28.08s153.46,9.96,209,28.08c55.67,18.13,75.42,38.92,75.42,51.21Z"/>
    <path class="cls-3" d="M572.09,1238.19c-11.96,8.54-30.21,17.67-56.38,26.17-55.54,18.12-129.75,28.08-209,28.08s-153.46-9.96-209-28.08c-23.96-7.79-41.25-16.08-53.17-24,12-8.54,31-17.58,57-26.08,55.54-18.13,129.79-28.08,209-28.08s153.5,9.96,209,28.08c22.79,7.42,40.62,16.25,52.54,23.92Z"/>
  </g>
  <path class="cls-2" d="M390.38,1465.45c-1.42,0-2.7-.97-3.04-2.41-.39-1.68.65-3.36,2.33-3.76,46.21-10.87,110.41-41.21,153.86-124.05.8-1.53,2.7-2.12,4.22-1.31,1.53.8,2.12,2.69,1.32,4.22-44.55,84.93-110.49,116.06-157.96,127.23-.24.06-.48.08-.72.08Z"/>
</svg>