<?xml version="1.0" encoding="UTF-8"?>
<svg id="Layer_1" xmlns="http://www.w3.org/2000/svg" version="1.1" viewBox="0 0 1424.2 1111.3">
  <!-- Generator: Adobe Illustrator 29.5.1, SVG Export Plug-In . SVG Version: 2.1.0 Build 141)  -->
  <defs>
    <style>
      .st0 {
        fill: #e44c1a;
      }

      .st1 {
        display: none;
      }

      .st1, .st2 {
        isolation: isolate;
      }

      .st3 {
        fill: #0c0e15;
      }

      .st4 {
        fill: #7eb034;
      }

      .st5 {
        fill: #f7f7f7;
      }

      .st2 {
        fill: #252525;
        font-family: ShipporiMincho-Bold, 'Shippori Mincho';
        font-size: 258.8px;
        font-weight: 700;
      }
    </style>
  </defs>
  <g id="LOGO">
    <g>
      <ellipse class="st3" cx="712" cy="401.1" rx="363.9" ry="46.6"/>
      <g>
        <path class="st4" d="M694.4,188c-33.6-34.4-125.1,11.6-159.4-121.3,189-35.9,175.7,108.5,175.7,108.5,0,0-29.9-70.1-90.3-84.2,43.6,24.5,73.3,88.4,74,97h0Z"/>
        <path class="st4" d="M727.8,156.8c3.8-38.6,84.6-55.8,39.2-156.8-137.1,72.7-55.9,156.9-55.9,156.9,0,0-16.5-59.2,14.4-98.6-15.1,37.4-1.6,92.6,2.3,98.4h0Z"/>
        <g>
          <path class="st3" d="M584.3,175.8c-2.5,0-5.1-.2-7.7-.8-2.7-.5-5.5-.5-8.1.2-2.7.7-5.8,2-8.2.5-.6-.4-1.2-1-1.8-1.3-1.8-.8-3.8.3-5.6.8-4.1,1.1-8.7-.8-12.8.2-1.7.4-3.2,1.2-4.8,1.8-5.4,1.7-11.2,0-16.8,0-1.7,0-3.4.3-5.1.5-1.6.2-3.3.4-4.9.6-6.6.9-13.1,1.7-19.7,2.6-2.2.3-4.5.6-6.6,1.4-1.5.6-3,1.5-4.6,1.7-1.7.2-3.5-.3-5.2-.2-2.7,0-5.1,1.6-7.7,2.3-1.9.5-3.8.7-5.8,1-11.1,1.6-22.4,6.7-32.1,12.1-6.4,3.5-14.7,9.2-14.8,17.4,0,2.6.3,4.9,0,7.5-.4,3-.6,6.1,0,9.1.2,1.2.5,2.3.3,3.5,0,.9-.4,1.7-.6,2.6-.7,3.3.5,6.7,0,10,0,.8-.3,1.5-.4,2.3,0,.9,0,1.9,0,2.8.2,2.6-.7,5.7.2,8.1.7,1.9,0,4-.4,5.9-.9,5.2,1,10.5.5,15.7-.4,4-2.1,7.9-1.8,11.9.2,3.2,1.8,6.2,1.8,9.4s-1.2,5.9-1.1,8.9c0,1.7.5,3.3.5,4.9s-.4,2.8-.6,4.2c-.7,5.1,1,10.3.5,15.4-.2,2-.5,4-.8,6-.2,1.5-.5,2.9-.3,4.4.4,2.9,2,5.7,1.5,8.5-.4,2-1.8,3.6-2.1,5.6-.2,1.8.5,3.5.8,5.2.7,3.7,0,7.4-.5,11-.4,3.1,0,6.2,0,9.3,0,9,9.5,15.2,16.4,19,13.9,7.7,29.8,12,45.2,15.5,8.7,2,17.5,3.6,26.4,5,3.7.6,7.6.7,11.1,2,3.7,1.3,6.7,2.7,10.8,2,2.2-.3,4.3-1.1,6.5-.8,1.1.2,2.2.7,3.2,1,2.4.8,4.9.9,7.5,1,10.5.4,21,.8,31.5,1.2,2.1,0,4.1.2,6.1.6,2.4.5,4.7,1.5,7.2,1.6,2.2,0,4.3-.7,6.5-1.1,9.6-1.9,19.8,1.7,29.2-1.2,2-.6,4-1.5,6-1.2,2.7.4,4.6,2.9,7.2,3.5,3.7.9,7.1-2.2,10.5-3.9,7.5-3.6,16.4-.9,24.6-2.5,1.5-.3,3-.7,4.6-.5,1.3.2,2.5.9,3.8,1.2,7.2,1.9,14.3-7.7,21.1-4.6,1.1.5,2.2,1.4,3.4,1.5,1.3,0,2.6-.7,3.7-1.4,6.5-4.3,13.9-7.3,21.5-8.9,13.2-2.7,31.5-13.4,30.9-29.1l-.3-8.4c-.4-10.1-.8-20.5,2.3-30.2.4-1.3.9-2.7.5-4-.4-1.6-2-2.6-2.8-4-2.6-4.4,2.5-10,1.3-15.1-.3-1.2-.9-2.3-1.3-3.5-.7-2.1-.5-4.4-.4-6.5.2-2.3,0-3.5-.3-5.6-.2-1.1.7-2,1.4-2.8,1.4-1.6,2.2-3.9,1.4-5.9-.2-.6-.6-1.1-.9-1.7-.4-.9-.4-1.9-.5-2.8-.2-3-.4-6,.2-8.9.4-1.9,1.1-3.7,2.2-5.4.3-.5.6-.9.7-1.4v-1.4c-.7-4.2-2.1-7.7-.6-11.9.6-1.6,1.1-3.5.3-5-.4-.8-1.1-1.4-1.4-2.2-.4-1.1,0-2.4.6-3.5s1.3-2.1,1.6-3.2c.5-2.2-.7-3.6-1.4-5.5-.7-1.9-.5-4.1-.6-6.2,0-1.4-.6-3.3-.4-4.6.3-1.5,1.7-2.5,1.9-4.1.4-2.5-1.1-4.9-1.2-7.4-.2-4.5-.5-9.3-3-13.3-5.2-8.5-15.4-12-23.6-16.9-1-.6-2-1.2-3-1.6-1.6-.7-3.3-1-5-1.1-.4,0-.9,0-1.3-.2-.8-.4-1.1-1.3-1.8-1.9-.5-.4-1.2-.6-1.8-.7-2.1-.4-4.2-.5-6.3-.4-.5,0-1.1,0-1.6,0-.5-.2-.8-.6-1.2-.9-1.8-1.7-4.4-2.6-6.9-2.4-.8,0-1.6.2-2.4.2-1.8-.2-3.3-1.5-5-2.2-3.1-1.3-6.9-.3-9.7-2.1-.5-.3-1-.7-1.5-1-2.3-1-5.2,1.2-7.3,0-.4-.3-.7-.6-1.1-.9-.9-.6-2.1-.6-3.2-.6-2.6,0-4.9,0-7.5-.3-1.2-.2-2.3-.4-3.4-.9-.5-.2-1-.5-1.5-.7-.5,0-1.1,0-1.6,0-3.1,0-6.4.5-9.3-.8-.7-.3-1.4-.7-2.2-.9-1.2-.3-2.5.2-3.8.3-2.7.3-5.3-.8-7.9-.8s-5,1.1-7.3,0c-.7-.3-1.2-.8-1.9-1-.7-.2-1.4,0-2.1,0-3.5.5-7.5,2.1-10.3,0-.8-.6-1.4-1.4-2.4-1.7s-2,0-3,.4c-2.1.7-4.4.8-6.6.4-1.1-.2-2.2-.6-3.3-.7-1.2,0-2.5,0-3.7,0-2.9.3-5.7.5-8.5.5l-.4.7Z"/>
          <g>
            <path class="st5" d="M410.8,268.7c-.9,5.2,1,10.5.5,15.7-.2,2.1-.8,4.2-1.2,6.3l.5.2c22.3,8.6,48.5,13.1,62.2,15.4,17.1,2.7,34.3,4.4,51.5,5.3,17.3,1,34.5,1.3,51.6-2.7v-.2c-8.4-2.5-16.7-4.3-25.1-5.9-8.3-1.6-16.6-2.9-24.9-4.5-32.4-6.4-65.4-14.8-95.6-27.5-6.8-2.9-13.4-6.1-19.2-9.6l-.2.2c0,.5.2.9.3,1.4.7,1.9,0,4-.4,5.9h0Z"/>
            <path class="st5" d="M464.9,348c21.2,4,42.6,6.5,64.1,7.9,32,1.5,64.5,2.7,95.8-5.7-20.5-4.3-42-4.5-62.9-6.9-40.9-4.7-82.4-13.1-121-26.8-9.5-3.5-18.8-7.3-27.1-11.8-.9-.5-1.8-1-2.8-1.6.2.9.3,1.8.4,2.8,0,3-1.2,5.9-1.1,8.9,0,1.7.5,3.3.5,4.9s-.4,2.8-.6,4.2c-.5,3.1,0,6.3.3,9.4,19.8,7.7,42.1,12.3,54.5,14.8h-.1Z"/>
            <path class="st5" d="M409.5,349.6c.4,2.9,2,5.7,1.5,8.5-.4,2-1.8,3.6-2.1,5.6-.2,1.8.5,3.5.8,5.2.4,2.1.3,4.2,0,6.3,24.6,9.5,54.5,14.2,69.7,16.3,18.5,2.5,37.1,4,55.8,4.6,18.6.7,37.3.7,55.6-3.5v-.2c-9.1-2.4-18.2-4-27.3-5.5-9-1.5-18.1-2.6-27.1-4.1-35.2-5.8-71.2-13.8-104.3-26.8-8-3.2-15.8-6.8-22.5-10.9-.2,1.5-.5,2.9-.3,4.4h.2Z"/>
          </g>
          <path class="st5" d="M742.7,221.9c-.2,4.6-3.8,8.1-7.1,11.9-2.6,2.9-6,5.5-10,5.7h-2.5c-1.1.2-2.1.9-3.1,1.5-3,2.1-6.2,4.3-9.9,4.7-1.9.2-3.8,0-5.5.7-1.5.6-2.6,1.9-4,2.8-3.1,2-7,2-10.7,1.9-2.5,0-4.9,0-7.4-.2-1.3,0-2.7,0-4,.3-1.1.3-2.1.9-3.2,1.4-3.3,1.5-6.9,2-10.5,2.5-5.7.7-11.3,1.4-17,2.1-2.3.3-4.6.6-6.9.6s-3.8-.2-5.7,0c-3,.3-6,1.4-9,1.4s-4.5-.7-6.8-.8c-5.9-.2-11.6,3.5-17.5,2.7-2.4-.3-4.6-1.4-7-2-3.8-.9-8,.8-12,.7-5,0-9.1-2.1-14.2-.8-3.2.8-6.5,2-9.8,1.5-4.3-.6-7.9-4.1-12.3-4.4-1.8,0-3.5.2-5.3.5-5.3,1-10.9,1.5-16.1,0-2.9-.9-5.7-2.3-8.6-3.1-6.7-1.7-14,.6-20.6-1.3-4.4-1.2-8.4-4.2-13-4.1-1.9,0-3.8.6-5.7.6-6.1,0-11-5-16.9-6.6-2.9-.8-5.9-.8-8.7-1.5-4.2-1.1-7.7-3.7-11.2-6.2-6-4.5-16-8.9-15.9-17.6.3-22.3,71.9-39.3,159.8-38,6.1,0,12.2.3,18.2.5,35.4,1.6,72,5.3,105.7,16.5,9.8,3.3,20.5,7.3,28.3,14.3,2.4,2.2,4.8,4.8,5.8,8,.4,1.2.5,2.4.5,3.5l-.2.3Z"/>
          <g>
            <path class="st0" d="M583,195.3c-52-.7-94.1,9.4-94.3,22.7,0,5.6,7.4,10.9,19.9,15.1,21.1-18.9,47.2-30.7,74.4-37.8Z"/>
            <path class="st0" d="M651.4,203.5c-9-2.5-19.8-4.5-31.8-5.9-33.6,5.8-67.8,18.1-93.5,40.1,14.1,2.9,31.3,4.9,50.1,5.6,11-14.3,26.3-25.2,42.9-31.5,10.5-4.1,21.3-6.7,32.3-8.3h0Z"/>
            <path class="st0" d="M670.2,210.8c-16,1.3-32,5.2-46.5,11.7-11.2,5-21.3,12.1-29.4,21.1,47.3-.7,84.1-10.3,84.3-22.6,0-3.6-3-7-8.4-10.1h0Z"/>
          </g>
        </g>
        <g>
          <path class="st3" d="M950.8,124.6c-2-1.6-3.9-3.3-5.7-5.3-1.8-2-4.1-3.7-6.6-4.7-2.6-1.1-5.9-1.9-6.8-4.6-.3-.7-.3-1.5-.7-2.2-.9-1.7-3.2-2.1-5-2.8-4-1.6-6.4-5.9-10.4-7.6-1.6-.7-3.3-.9-4.9-1.5-5.3-1.9-8.9-6.8-13.4-10.1-1.4-1-2.9-1.9-4.4-2.7-1.4-.8-2.9-1.6-4.3-2.5-5.7-3.3-11.5-6.6-17.2-9.9-2-1.1-3.9-2.2-6.1-2.9-1.6-.5-3.3-.6-4.7-1.4-1.5-.9-2.6-2.3-4-3.3-2.2-1.6-5-1.9-7.5-2.8-1.8-.7-3.5-1.8-5.2-2.7-9.8-5.4-21.8-8.3-32.9-9.8-7.2-1-17.2-1.6-22.3,4.9-1.6,2.1-2.7,4.1-4.6,6-2.1,2.2-4.2,4.5-5.6,7.2-.6,1-1,2.1-1.8,3-.6.6-1.4,1.1-2.1,1.7-2.6,2.2-3.6,5.7-6.1,8-.6.5-1.2,1-1.7,1.6-.7.7-1.2,1.5-1.7,2.3-1.4,2.2-4,4.1-4.8,6.6-.6,1.9-2.4,3.1-3.9,4.5-3.9,3.6-5.6,9-9.1,12.9-2.7,3-6.4,5-8.6,8.4-1.7,2.7-2.4,6-4.2,8.6-1.8,2.4-4.5,4-6.2,6.4-1,1.4-1.6,2.9-2.6,4.2-.9,1.1-2,2-3,3-3.7,3.6-5.4,8.7-8.9,12.5-1.4,1.5-2.9,2.9-4.3,4.3-1.1,1-2.2,2-2.9,3.3-1.4,2.5-1.8,5.8-4,7.7-1.5,1.3-3.6,1.8-5,3.2-1.3,1.3-1.7,3.1-2.5,4.7-1.6,3.4-4.6,5.8-7.1,8.5-2.2,2.3-3.8,4.9-5.7,7.4-5.6,7.1-1.7,17.9,1.5,25.1,6.4,14.6,16.4,27.6,26.6,39.7,5.7,6.9,11.7,13.5,17.9,19.9,2.6,2.7,5.6,5.2,7.6,8.3,2.1,3.3,3.7,6.2,7.4,8.2,1.9,1,4.1,1.7,5.6,3.3.8.8,1.3,1.8,2,2.8,1.4,2.1,3.4,3.7,5.4,5.3,8.1,6.7,16.2,13.3,24.4,20,1.6,1.3,3.2,2.6,4.5,4.2,1.6,1.9,2.9,4.1,4.8,5.6,1.7,1.4,3.8,2.1,5.8,3,8.8,4.3,14.8,13.4,23.9,16.7,1.9.7,4.1,1.2,5.5,2.7,1.8,2,1.9,5.1,3.6,7.1,2.4,2.9,6.9,2.5,10.7,3.3,8.1,1.6,13.6,9.2,21.1,12.9,1.4.7,2.9,1.3,3.9,2.4.9.9,1.4,2.2,2.2,3.2,4.6,5.8,16,2.6,19.5,9.1.6,1.1.9,2.4,1.8,3.3,1,.9,2.5,1,3.8,1.1,7.8.5,15.5,2.6,22.5,5.9,12.1,5.8,33.2,8.4,42.2-4.4,1.6-2.3,3.2-4.6,4.8-6.9,5.8-8.3,11.8-16.8,20.1-22.6,1.1-.8,2.3-1.6,2.8-2.9.6-1.5,0-3.3.2-4.9.6-5.1,8-6.5,10.1-11.2.5-1.2.7-2.4,1.1-3.6.7-2.1,2.2-3.8,3.7-5.5s2.2-2.7,3.2-4.7,1.8-1.1,2.8-1.4c2.1-.4,4.1-1.8,4.7-3.9.2-.6.2-1.3.3-1.9.2-.9.8-1.8,1.3-2.6,1.6-2.5,3.3-5,5.6-7,1.5-1.3,3.2-2.3,5-3,.5-.2,1-.4,1.4-.7s.6-.7.8-1.2c2-3.8,3-7.4,6.8-9.8,1.5-.9,3-2.1,3.3-3.8,0-.8,0-1.7.2-2.5.4-1.2,1.5-1.9,2.6-2.4s2.3-.8,3.2-1.6c1.7-1.4,1.6-3.3,2.2-5.3s2.1-3.6,3.3-5.3c.8-1.1,1.5-3,2.5-3.9,1.2-1,2.8-.9,4-2.1,1.8-1.8,2.1-4.6,3.5-6.6,2.6-3.7,5.2-7.7,5.7-12.3,1-10-5-18.9-8.5-27.7-.4-1.1-.9-2.1-1.4-3.1-.8-1.5-2-2.8-3.3-3.9-.3-.3-.7-.6-.9-1-.4-.8,0-1.7-.3-2.6-.2-.6-.6-1.2-1-1.7-1.4-1.5-3-2.9-4.8-4.1-.4-.3-.9-.6-1.2-1.1-.3-.4-.3-1-.4-1.5-.4-2.5-1.9-4.8-4.1-6.1-.7-.4-1.4-.8-2-1.3-1.4-1.2-1.7-3.2-2.6-4.8-1.7-2.9-5.3-4.4-6.4-7.5-.2-.6-.3-1.2-.6-1.7-1.2-2.2-4.9-2.2-5.7-4.5-.2-.4-.2-.9-.3-1.3-.4-1-1.3-1.8-2.2-2.4-2.1-1.5-4-2.9-5.8-4.8-.8-.9-1.6-1.8-2.2-2.8-.3-.5-.5-1-.8-1.5-.3-.4-.8-.8-1.2-1.1-2.5-1.8-5.4-3.5-6.9-6.2-.4-.7-.7-1.4-1.2-2-.8-1-2.1-1.4-3.2-2.1-2.3-1.4-3.7-3.9-5.8-5.4-2-1.4-4.7-2.2-5.8-4.3-.3-.6-.5-1.3-.9-1.9-.4-.6-1-.9-1.6-1.3-3.1-1.7-7.2-2.9-8.2-6.3-.3-.9-.3-2-.9-2.8s-1.7-1.1-2.7-1.5c-2.1-.8-4-2-5.5-3.7-.8-.8-1.4-1.8-2.2-2.6-.9-.9-1.9-1.5-3-2.2-2.5-1.5-4.8-3.1-7-4.8l-.3.4Z"/>
          <g>
            <path class="st5" d="M756.4,93.5c-3.9,3.6-5.6,9-9.1,12.9-1.4,1.6-3.2,2.9-4.8,4.3l.3.5c12.5,20.3,30.6,39.8,40.1,49.9,12,12.5,24.6,24.3,37.8,35.4,13.2,11.2,26.7,22,42.7,29.1v-.2c-5-7.1-10.6-13.6-16.2-19.9-5.6-6.3-11.5-12.3-17.1-18.6-21.9-24.7-43-51.4-59.4-79.8-3.6-6.4-7-13-9.5-19.3h-.3c-.2.4-.4.8-.6,1.3-.6,1.9-2.4,3.1-3.9,4.5h0Z"/>
            <path class="st5" d="M751.5,189.4c14.4,16,29.9,31,46.2,45.1,24.6,20.6,49.7,41.2,79.7,53.5-13.7-15.8-30.7-29-45.9-43.6-29.7-28.5-57.6-60.3-80-94.6-5.4-8.5-10.6-17.2-14.4-25.8-.4-1-.8-1.9-1.2-2.9-.4.8-.8,1.7-1.4,2.4-1.8,2.4-4.5,4-6.2,6.4-1,1.4-1.6,2.9-2.6,4.2-.9,1.1-2,2-3,3-2.3,2.2-3.8,5-5.5,7.7,11.1,18.2,26.1,35.3,34.4,44.8v-.2Z"/>
            <path class="st5" d="M706.4,157c-1.4,2.5-1.8,5.8-4,7.7-1.5,1.3-3.6,1.8-5,3.2-1.3,1.3-1.7,3.1-2.5,4.7-.9,1.9-2.3,3.5-3.7,5,13.8,22.5,34.8,44.3,45.6,55.2,13.2,13.2,27.1,25.6,41.6,37.4,14.4,11.8,29.2,23.1,46.4,30.9v-.2c-5.7-7.5-11.9-14.3-18.2-20.9-6.3-6.7-12.8-13-19.1-19.6-24.5-26-48.3-54.1-66.8-84.5-4.4-7.4-8.5-15-11.3-22.3-1.1,1-2.2,2-2.9,3.3h0Z"/>
          </g>
          <path class="st5" d="M1048.9,257.3c-3,3.6-7.9,4.2-12.9,5.1-3.9.7-8.2.7-11.4-1.5-.7-.5-1.3-1.1-2-1.4-1-.5-2.2-.6-3.4-.7-3.7-.2-7.5-.4-10.7-2.2-1.6-.9-3-2.3-4.8-2.8-1.6-.4-3.2,0-4.9-.2-3.7-.3-6.8-2.7-9.6-4.9-1.9-1.5-3.8-3.1-5.8-4.6-1-.8-2.1-1.7-3.3-2.2-1.1-.4-2.2-.5-3.4-.8-3.5-.8-6.7-2.6-9.8-4.4-4.9-2.9-9.8-5.7-14.8-8.6-2-1.2-4-2.3-5.9-3.7-1.5-1.2-2.9-2.5-4.6-3.5-2.6-1.6-5.6-2.5-8-4.3-1.8-1.4-3.2-3.3-5-4.7-4.6-3.8-11.4-4.3-15.6-8.5-1.7-1.7-2.8-3.9-4.3-5.8-2.5-3-6.8-4.2-10-6.7-4-3.1-6-7.2-10.8-9.2-3.1-1.3-6.4-2.4-8.8-4.7-3.1-3.1-3.9-8-7.1-11-1.3-1.2-3-2-4.5-2.8-4.8-2.5-9.6-5.5-12.8-9.8-1.8-2.5-3.1-5.3-5-7.7-4.3-5.4-11.5-8-15.7-13.5-2.8-3.6-4.2-8.4-7.9-11.1-1.5-1.1-3.4-1.8-4.9-3-4.9-3.6-5.8-10.6-9.5-15.5-1.8-2.4-4.2-4.2-6.1-6.5-2.7-3.4-3.9-7.6-5.1-11.7-2.1-7.2-7.4-16.7-2-23.6,13.8-17.6,81,12.2,150.1,66.6,4.8,3.8,9.5,7.6,14.2,11.5,27.2,22.7,54.1,47.8,74.1,77.2,5.8,8.6,11.9,18.2,13.8,28.5.6,3.2.9,6.7-.3,9.9-.4,1.2-1,2.2-1.7,3.1l.2-.3Z"/>
          <g>
            <path class="st0" d="M937.9,139.4c-40.9-32-80.6-49.5-88.7-39.1-3.5,4.4-.7,13.1,6.6,24.1,28.2-2.2,56.1,4.1,82.1,15Z"/>
            <path class="st0" d="M987.4,187.4c-5.6-7.4-13-15.5-21.7-24-30.2-15.8-64.9-26.6-98.7-24.7,9.4,10.9,21.9,22.9,36.5,34.8,17.4-4.8,36.2-4.1,53.3.9,10.8,3.1,21.1,7.5,30.7,13h-.1Z"/>
            <path class="st0" d="M997.9,204.5c-13.6-8.7-28.6-15.3-44.1-18.9-11.9-2.8-24.3-3.2-36.1-1,38,28.1,73.1,42.8,80.8,33,2.2-2.8,1.9-7.4-.5-13.1h-.1Z"/>
          </g>
        </g>
      </g>
    </g>
    <g>
      <path class="st3" d="M1275.2,508.6c12.4,0,20.3-3.8,23.7-11.4l22.7-50.6c-16.5-12.4-35.1-16.5-54.7-11.4,1,25.8-5.2,49.6,8.3,73.3h0Z"/>
      <path class="st3" d="M1405.3,643.8c-3.1,4.1-19.6,23.7-22.7,28.9-18.6,25.8-36.1,53.7-56.8,79.5-10.3,15.5-23.7,29.9-35.1,43.4l-11.4,10.3c-8.3,4.1-19.6,1-23.7-7.2l-5.2-26.8c-5.2-16.5,7.2-34.1,0-51.6,0-1,1-4.1,1-5.2,14.5-20.7,7.2-49.6,19.6-72.3,3.1-7.2,11.4-16.5,10.3-19.6-10.3-15.5,6.2-25.8,6.2-38.2-11.4-14.5-28.9-11.4-42.3-19.6-3.1,10.3-5.2,18.6-8.3,25.8-16.5,34-32.1,68.8-38.2,106.3-6.5,8.3-13.1,16.8-19.6,24.8-21.7,25.8-39.2,53.7-70.2,72.3-12.4,3.1-24.8,3.1-33-11.4-13.4-22.7-22.7-45.4-13.4-71.2,5.2-11.4,8.3-22.7,7.2-35.1,0-24.8,5.2-49.6,10.3-73.3,3.1-8.3,2.1-16.5,2.1-24.8-2.1-3.1-4.1-9.3-7.2-11.4-14.5-11.4-34.1-10.3-50.6,1-26.8,18.6-48.5,42.3-70.2,68.1-14.5,19.6-29.9,39.2-48.5,62,1-27.9,11.4-51.6,21.7-73.3,9.3-20.7,8.3-43.4,21.7-62,5.2-9.3,4.1-24.8,11.4-32,9.3-10.3,1-24.8,9.3-35.1,6.2-6.2,7.2-15.5,12.4-27.9-1-9.3,1-22.7,8.3-34.1,5.1-10.2,5.3-22.4,10.9-29.3h-66.5c-4,8-8.1,16.1-12.6,24.1,2.1,1,3.1,5.2,4.1,8.3-5.2,4.1-8.3,6.2-13.4,8.3-1,9.3-1,20.7-6.2,26.8-10.3,14.5-12.4,33-12.4,47.5-8.3,13.4-14.5,27.9-23.7,37.2-6.2,7.2-4.1,14.5-7.2,20.7-2.1,7.2-4.1,14.5-5.2,21.7-2.1,9.3-5.2,17.6-8.3,26.8-2.1,10.3-1,23.7-8.3,29.9-9.3,9.3-2.1,17.6-4.1,25.8-.5,1.1-.9,2.1-1.2,3.2-24.1-8.1-48.6-6.5-73.1,3-5.2,7.2-8.3,14.5-11.4,21.7-2.1,1-3.1,1-5.2,3.1-1-5.2-2.1-10.3-5.2-16.5-10.3,2.1-19.6,4.1-33,7.2-10.3-15.5-22.7-29.9-33-45.4,0-2.1,2.1-5.2,1-7.2-9.3-18.6-2.1-36.1,7.2-51.6,10.3-17.6,23.7-29.9,44.4-35.1,13.4-4.1,26.8-10.3,43.4-10.3s7.2-5.2,10.3-7.2c-15.5-17.6-39.2-36.1-56.8-40.3-8.3-2.1-18.6-4.1-26.8-1-28.9,7.2-65,51.6-69.2,81.6-2.9,21.8-.6,42.6,6.7,61.6-.2,0-.3.3-.5.4-7.2,4.1-13.4,10.3-18.6,17.6-11.4,17.6-23.7,36.1-35.1,53.7-14.5,18.6-28.9,37.2-52.7,43.4-6.2-10.3-10.3-18.6-4.1-29.9,3.1-6.2,0-15.5-2.1-23.7,0-4.1-2.1-7.2-1-11.4,4.1-18.6,8.3-36.1,13.4-55.8,2.1-8.3,7.2-15.5,7.2-23.7,0-29.9,15.5-55.8,27.9-84.7-6.2-5.2-13.4-14.5-21.7-16.5-14.5-2.1-31-4.1-41.3,5.2-13.4,40.3-20.7,79.5-41.3,113.6-26.8,44.4-64,81.6-104.3,117.7,3.1-18.6,7.2-34.1,10.3-48.5,5.2-16.5,13.4-32,14.5-48.5,4.1-25.8,19.6-44.4,36.1-60.9,1-2.1,3.1-4.1,8.3-10.3-12.4-5.2-20.7-9.3-28.9-13.4-10.3-2.1-19.6,0-25.8,11.4-.3.3-.5.6-.8.9-4.8-.8-8.7-.7-12.6,0-11.4,3.1-118.7,66.1-130.1,70.2-3.1-5.2-8.3-8.3-11.4-13.4-15.5-22.7-36.1-39.2-55.8-56.8-22.7-19.6-48.5-37.2-44.4-74.3,0-1-3.1-3.1-3.1-6.2-1-6.2-2.1-13.4-1-19.6,8.3-24.8,17.6-49.6,41.3-65,19.6-13.4,41.3-29.9,65-36.1,27.9-8.3,55.8-18.6,85.7-19.6,6.2,0,10.3-4.1,17.6-6.2-23.7-24.8-47.5-39.2-79.5-25.8h-8.3c-35.1,0-66.1,14.5-96,31-20.7,11.4-39.2,25.8-55.8,44.4-9.3,10.3-20.7,18.6-23.7,31-7.2,27.9-7.2,54.7,2.1,82.6,13.4,36.1,39.2,64,69.2,87.8,24.8,19.6,39.2,46.5,56.8,72.3-14.5,8.3-25.8,14.5-37.2,23.7-26.8,23.7-53.7,49.6-81.6,76.4-3.1,3.1-3.1,9.3-6.2,13.4-4.1,12.4-8.3,26.8-20.7,31-24.8,9.3-34.1,32-45.4,52.7,13.4,29.9,32,50.6,53.7,67.1,25.8,6.2,48.5-5.2,72.3-1,1-4.1,2.1-9.3,3.1-14.5,7.2,3.1,12.4,5.2,16.5,6.2,6.9-10.3,23.4-15.8,49.6-16.5,8.3-6.2,15.5-10.3,20.7-16.5,6.2-6.2,9.3-14.5,14.5-21.7h4.1c2.1,1,3.1,3.1,5.2,4.1,29.9-24.8,38.2-59.9,40.3-96,3.1-19.6,2.1-38.2-7.2-55.8-8.3-17.6-14.5-34.1-23.7-52.7,5-12.5,86.1-52.6,118.2-79-8.1,24.3-17.2,48.6-24.3,73.9-5.2,20.7-10.3,40.3-8.3,60.9,2.1,28.9,28.9,42.3,51.6,25.8,8.3-4.1,14.5-8.3,20.7-16.5,11.4-17.6,27.9-34.1,42.3-49.6,1-2.1,5.2-2.1,8.3-5.2,5.2,14.5,1,26.8,2.1,39.2,3.1,31,14.5,55.8,47.5,68.1,13.4,4.1,25.8,2.1,37.2,6.2,12.4,2.1,19.6-2.1,24.8-10.3,6.2-8.3,12.4-16.5,19.6-23.7,18.6-18.6,25.8-47.5,47.5-66.1.6-11.8,6.9-20.9,13.6-30,3.9,5.4,8.3,10.6,13.2,15.6,10.3,8.3,18.6,17.6,27.9,28.9-22.7,15.5-43.4,27.9-63,42.3-5.2,4.1-8.3,7.2-12.4,12.4-10.3,13.4-20.7,27.9-32,42.3-12.4,17.6-12.4,32,0,52.7,2.1,2.1,5.2,3.1,5.2,5.2,7.2,31,34.1,37.2,57.8,45.4,11.4,4.1,23.7,2.1,36.1,0,14.5-3.1,26.8-8.3,40.3-14.5,9.3-4.1,19.6-10.3,25.8-18.6,17.6-24.8,31-52.7,27.9-84.7-1-22.7-11.4-41.3-24.8-57.8,4.1-8.3,8.3-15.5,11.4-22.7,17.6,6.2,33-7.2,49.6-9.3,5.9-.7,12.1-1.1,18.4-1.6-.9,5.8-2,11.6-3.9,17-5.2,19.6-3.1,42.3-8.3,64-5.2,18.6,0,40.3,10.3,58.9,6.2,16.5,24.8,13.4,35.1,21.7h7.2c13.4-21.7,32-39.2,40.3-65,4.1-15.5,15.5-28.9,20.7-44.4,13.4-43.4,41.3-80.5,66.1-118.7,2.1-1,6.2-1,12.4-3.1-4.1,11.4-6.2,19.6-9.3,27.9-3.1,14.5-11.4,28.9-8.3,44.4,5.2,16.5,8.3,34.1,15.5,50.6,14.5,35.1,39.2,52.7,75.4,58.9,11.4,2.1,25.8,3.1,38.2,0,12.4-6.2,25.8-16.5,37.2-24.8,14.8-12.1,25.2-27.5,34.8-43.2.4,7.7,1.4,15.3,3.4,22.5,9.3,33,31,59.9,68.1,68.1,26.8-10.3,49.6-26.8,67.1-50.6,7.2-9.3,10.3-20.7,17.6-28.9,16.5-18.6,28.9-39.2,40.3-59.9,6.2-10.3,23.7-37.2,33-46.5l-18.6-15.5-.3-.5ZM908.6,490c0-1,1,0,1,0v2.1c-1-1-3.1-1-4.1-1,.7-.7,1.7-1,3.1-1h0ZM196.2,902h-1c1-1,1-2.1,2.1-2.1l1,1c-.7.7-1.4,1-2.1,1h0ZM189,813.2c-23.7,25.8-54.7,43.4-86.7,58.9-9.3,4.1-17.6,5.2-28.9,4.1-3.1-14.5,0-23.7,8.3-36.1,24.8-39.2,57.8-72.3,89.8-103.3,9.3-9.3,19.6-15.5,29.9-23.7,17.6,32,11.4,72.3-12.4,100.2h0ZM736.2,833.8c-5.2,18.6-20.7,28.9-39.2,33-22.7,7.2-46.5,6.2-70.2,5.2-3.1-3.1-6.2-8.3-8.3-13.4,7.2-42.3,38.2-65,70.2-86.7,10.3-6.2,21.7-13.4,35.1-21.7,20.7,26.8,18.6,55.8,12.4,83.6ZM770.3,700.6c-1-1-2.1-1-2.1-2.1,0,0,0-1,1-1l1,1v2.1h0Z"/>
    </g>
    <g>
      <path class="st3" d="M325.1,1110.1c0-1,.8-2.2,2.3-3.4,16.7-14.3,30.8-31.2,42.3-50.7s18.8-39.9,22.1-61.1c.7-3.4,1-6.5,1-9.1,0-7.8-3.2-13.8-9.6-18.1-.7-.5-1.6-1.1-2.8-1.7-1.2-.6-1.8-1.1-1.8-1.4,0-.7.9-1.3,2.7-1.9,1.8-.6,4.4-.9,7.6-.9s7.7.6,11.1,1.8c9.5,3.1,16.5,6.6,21.1,10.5s6.9,7.4,6.9,10.5-.4,3-1.3,4.4-1.4,2.2-1.6,2.6c-2.9,4-5.2,8.8-6.7,14.5-5.5,19.7-13.1,36.3-22.6,49.9-9.6,13.6-19.8,24.5-30.7,32.6-10.9,8.1-22.8,15.4-35.7,21.7-1.4.7-2.3,1-2.8,1-1,0-1.6-.4-1.6-1.3h0ZM443.6,1073.6c-4.7-6.4-7-11.7-7-16s.2-2.2.5-3.6c2.1-5.7,3.4-11,3.9-16,.2-1.7.3-4.5.3-8.3v-8.3c0-3.1.3-11.6.8-25.6.3-6.9.5-11.3.5-13.2,0-6.7-1-11.8-2.8-15.3-2.4-4.5-5-7.4-7.9-8.7-2.8-1.3-4.3-2.1-4.3-2.5,0-1.2,1.5-2.3,4.4-3.4,2.9-1,6.3-1.6,10.1-1.6s8.2.9,13.7,2.6,10.3,4.2,14.4,7.4c4.1,3.2,6.1,6.9,6.1,11s-.3,3.3-1,5.2c-.7,1.9-1.6,3.9-2.6,6-3.8,7.9-6.2,15.4-7.2,22.5-1.4,9.1-2.3,16-2.7,20.4-.4,4.5-.6,9.7-.6,15.5s0,1.9,0,2.7c0,.8.4,1.2.9,1.2,2.4,0,8.5-2.3,18.1-6.9,9.7-4.6,21.6-11.6,35.8-21.1,14.2-9.5,29.2-21.4,44.9-35.7,2.6-2.4,4.4-3.6,5.4-3.6s.5.3.5.8c0,1.2-1,3.4-3.1,6.5-12.1,18.6-23.5,33.2-34.2,43.6s-22.9,20.7-36.5,30.7c-10.2,7.8-17.2,13.4-21,16.8-4.5,4.3-9.1,6.5-13.7,6.5s-11-3.2-15.8-9.6h0Z"/>
      <path class="st3" d="M625.4,1044.4c-1.8-.9-4.1-2.3-6.9-4.4-3.8-2.9-7.2-7-10.2-12.3s-4.5-10-4.5-14.1.8-6.1,2.3-10.6c1.6-4.5,3.4-6.7,5.4-6.7s1.6.3,2.2.9,1.2,1.6,1.9,3c2.6,6,7.2,9.7,13.7,10.9,3.6.7,10.1,1,19.4,1s28.8-1.2,64.2-3.6c4.8-.3,8.3-.5,10.4-.5,32.1-2.1,53.2-3.1,63.4-3.1s16.7,1.1,23.3,3.2c6.6,2.2,9.8,5.8,9.8,11s-2.4,7.9-7.2,10.7c-4.8,2.8-11.2,4.4-19.1,4.5-.3,0-1.9,0-4.5,0-2.7,0-7.9,0-15.7,0-18.8,0-40.2.3-64.2,1-9.8.3-20.9,1.1-33.3,2.3-12.3,1.2-22.5,2.8-30.4,4.7l-7.5,2.1c-.9.2-2,.5-3.5.9s-2.7.6-3.8.6c-1.7,0-3.5-.4-5.3-1.3h0Z"/>
      <path class="st3" d="M856.1,1110.1c0-1,.8-2.2,2.3-3.4,16.7-14.3,30.8-31.2,42.3-50.7s18.8-39.9,22.1-61.1c.7-3.4,1-6.5,1-9.1,0-7.8-3.2-13.8-9.6-18.1-.7-.5-1.6-1.1-2.8-1.7-1.2-.6-1.8-1.1-1.8-1.4,0-.7.9-1.3,2.7-1.9,1.8-.6,4.4-.9,7.6-.9s7.7.6,11.1,1.8c9.5,3.1,16.5,6.6,21.1,10.5s6.9,7.4,6.9,10.5-.4,3-1.3,4.4-1.4,2.2-1.6,2.6c-2.9,4-5.2,8.8-6.7,14.5-5.5,19.7-13.1,36.3-22.6,49.9-9.6,13.6-19.8,24.5-30.7,32.6-10.9,8.1-22.8,15.4-35.7,21.7-1.4.7-2.3,1-2.8,1-1,0-1.6-.4-1.6-1.3h0ZM974.6,1073.6c-4.7-6.4-7-11.7-7-16s.2-2.2.5-3.6c2.1-5.7,3.4-11,3.9-16,.2-1.7.3-4.5.3-8.3v-8.3c0-3.1.3-11.6.8-25.6.3-6.9.5-11.3.5-13.2,0-6.7-1-11.8-2.8-15.3-2.4-4.5-5-7.4-7.9-8.7-2.8-1.3-4.3-2.1-4.3-2.5,0-1.2,1.5-2.3,4.4-3.4,2.9-1,6.3-1.6,10.1-1.6s8.2.9,13.7,2.6,10.3,4.2,14.4,7.4c4.1,3.2,6.1,6.9,6.1,11s-.3,3.3-1,5.2c-.7,1.9-1.6,3.9-2.6,6-3.8,7.9-6.2,15.4-7.2,22.5-1.4,9.1-2.3,16-2.7,20.4-.4,4.5-.6,9.7-.6,15.5s0,1.9,0,2.7c0,.8.4,1.2.9,1.2,2.4,0,8.5-2.3,18.1-6.9,9.7-4.6,21.6-11.6,35.8-21.1,14.2-9.5,29.2-21.4,44.9-35.7,2.6-2.4,4.4-3.6,5.4-3.6s.5.3.5.8c0,1.2-1,3.4-3.1,6.5-12.1,18.6-23.5,33.2-34.2,43.6s-22.9,20.7-36.5,30.7c-10.2,7.8-17.2,13.4-21,16.8-4.5,4.3-9.1,6.5-13.7,6.5s-11-3.2-15.8-9.6h0Z"/>
    </g>
    <g class="st1">
      <text class="st2" transform="translate(-1746.4 1115.3)"><tspan x="0" y="0">ルール</tspan></text>
    </g>
  </g>
</svg>